<?xml version="1.0" standalone="no"?>
<!DOCTYPE svg PUBLIC "-//W3C//DTD SVG 20010904//EN"
 "http://www.w3.org/TR/2001/REC-SVG-20010904/DTD/svg10.dtd">
<svg version="1.0" xmlns="http://www.w3.org/2000/svg"
 width="1078.000000pt" height="1078.000000pt" viewBox="0 0 1078.000000 1078.000000"
 preserveAspectRatio="xMidYMid meet">
<metadata>
Created by potrace 1.14, written by Peter Selinger 2001-2017
</metadata>
<g transform="translate(0.000000,1078.000000) scale(0.100000,-0.100000)"
fill="#000000" stroke="none">
<path d="M5473 6696 c-31 -36 -51 -80 -47 -103 2 -13 -1 -23 -7 -23 -6 0 -9
-8 -8 -17 1 -10 0 -20 -1 -23 -7 -19 -11 -54 -13 -108 -2 -52 -4 -59 -14 -45
-7 10 -18 25 -25 33 -7 8 -11 15 -9 15 3 0 -3 12 -13 27 -10 15 -23 25 -29 21
-5 -3 -7 -1 -3 5 8 14 -32 42 -60 42 -39 0 -58 -35 -60 -108 -1 -37 3 -73 8
-79 7 -9 7 -13 -2 -13 -9 0 -7 -8 5 -26 9 -15 12 -23 6 -20 -6 4 -4 -6 4 -21
18 -35 29 -66 27 -75 -1 -5 2 -8 7 -8 5 0 14 -13 21 -30 7 -17 17 -27 24 -23
6 3 8 3 4 -2 -11 -11 11 -47 24 -39 7 4 8 3 4 -4 -4 -6 -26 -16 -49 -22 -75
-19 -155 -52 -161 -65 -9 -24 0 -50 22 -60 17 -7 38 -37 47 -65 1 -3 13 -30
27 -60 14 -30 28 -65 32 -78 4 -12 12 -20 17 -17 5 3 6 -1 3 -9 -7 -18 14 -88
30 -98 8 -5 7 -8 -2 -8 -8 0 -10 -5 -5 -12 9 -15 10 -20 12 -49 1 -13 5 -18
14 -13 9 5 9 4 0 -6 -7 -8 -8 -22 -3 -41 10 -36 10 -32 10 -70 0 -20 4 -28 12
-23 7 5 8 3 2 -7 -5 -8 -7 -39 -5 -69 2 -30 4 -85 4 -122 1 -37 5 -64 9 -62
13 9 9 -4 -8 -20 -9 -9 -11 -16 -4 -16 6 0 9 -4 5 -10 -3 -5 -8 -46 -10 -91
-3 -45 -7 -85 -10 -87 -3 -3 1 -12 8 -20 8 -10 8 -13 0 -9 -7 5 -13 -13 -19
-56 -4 -34 -7 -65 -6 -69 1 -5 -2 -8 -8 -8 -5 0 -10 -11 -10 -25 0 -14 -4 -25
-10 -25 -6 0 -6 -9 0 -26 6 -14 6 -23 1 -19 -5 3 -15 -12 -21 -32 -7 -21 -16
-42 -20 -48 -5 -5 -9 -13 -10 -17 0 -4 -7 -22 -15 -40 -7 -18 -11 -37 -8 -42
4 -5 1 -6 -6 -2 -16 10 -41 -12 -41 -35 0 -38 163 -89 300 -93 103 -4 162 3
153 18 -5 8 -3 8 8 0 10 -9 32 -6 86 8 40 11 70 24 67 29 -3 5 1 6 9 3 28 -10
26 27 -3 73 -17 26 -30 52 -30 59 0 6 -7 15 -16 18 -8 3 -13 10 -10 15 8 13
-24 102 -35 95 -5 -3 -6 1 -3 9 3 8 -2 41 -10 73 -17 65 -21 92 -31 176 -5 36
-11 55 -18 51 -6 -4 -7 -1 -1 8 12 20 5 171 -9 188 -9 12 -9 13 1 7 9 -5 12
12 13 76 3 225 53 447 141 617 21 40 35 77 32 82 -3 5 2 6 10 3 10 -4 16 -1
16 9 0 8 6 18 13 21 9 5 9 7 -1 12 -6 3 -10 10 -7 14 7 11 -37 34 -95 50 -25
7 -51 14 -59 16 -11 4 -9 9 8 20 20 15 38 45 39 68 0 5 4 12 9 15 14 10 40 75
37 94 -1 9 2 17 8 17 6 0 8 7 5 15 -4 8 -1 17 4 21 6 3 9 15 6 25 -3 11 -2 19
2 19 4 0 7 9 7 20 0 11 -3 20 -7 20 -3 0 -5 16 -4 35 3 41 -26 85 -56 85 -10
0 -28 -9 -39 -20 -11 -11 -20 -17 -20 -14 0 11 -44 -48 -57 -75 -13 -29 -11
-38 -17 81 -1 20 -4 39 -7 43 -4 3 -5 19 -3 35 2 16 -1 32 -6 35 -5 3 -7 12
-3 20 3 8 0 15 -7 15 -6 0 -9 4 -6 9 8 13 -4 42 -15 35 -5 -3 -6 1 -3 9 5 15
-10 30 -33 33 -6 1 -20 -8 -30 -20z m-63 -470 c0 -3 -4 -8 -10 -11 -5 -3 -10
-1 -10 4 0 6 5 11 10 11 6 0 10 -2 10 -4z m-80 -1826 c0 -5 -2 -10 -4 -10 -3
0 -8 5 -11 10 -3 6 -1 10 4 10 6 0 11 -4 11 -10z"/>
<path d="M3755 6463 c3 -17 0 -20 -12 -16 -10 4 -14 2 -9 -5 3 -6 1 -14 -5
-17 -5 -4 -8 -13 -5 -20 2 -7 -4 -15 -16 -18 -13 -4 -19 -11 -15 -20 4 -11 0
-13 -14 -10 -11 3 -19 0 -19 -6 0 -7 5 -9 12 -5 7 4 8 3 4 -5 -4 -6 -11 -9
-15 -6 -11 6 -91 -33 -91 -45 0 -6 -5 -10 -11 -10 -5 0 -7 5 -4 10 3 6 2 10
-4 10 -5 0 -15 -8 -20 -17 -7 -12 -10 -14 -11 -4 0 11 -3 11 -15 1 -11 -9 -15
-10 -15 -1 0 8 -6 7 -16 -3 -17 -18 -28 -21 -19 -6 9 14 -8 12 -24 -2 -11 -11
-12 -10 -6 1 6 10 2 12 -14 6 -11 -3 -21 -3 -21 2 0 5 -10 9 -22 10 -22 2 -22
1 -4 -13 11 -8 15 -14 9 -14 -7 0 -15 5 -18 10 -4 6 -11 7 -17 4 -7 -4 -8 -2
-4 4 5 8 0 12 -13 12 -11 0 -23 5 -26 10 -4 6 -16 8 -27 4 -14 -4 -18 -2 -14
5 4 6 -3 15 -16 20 -13 5 -30 16 -37 25 -7 9 -20 16 -29 16 -8 0 -13 3 -9 6 7
8 -24 44 -34 38 -4 -2 -5 4 -2 14 5 23 -21 47 -39 36 -7 -5 -15 -9 -18 -9 -26
-4 -49 -19 -44 -28 5 -9 4 -9 -5 -1 -9 9 -23 7 -52 -8 -22 -10 -37 -23 -34
-27 2 -5 -3 -8 -13 -7 -10 0 -16 -5 -14 -13 3 -12 0 -12 -12 -1 -9 7 -16 8
-16 2 0 -5 -19 -20 -41 -31 -46 -24 -73 -47 -61 -54 4 -2 1 -2 -6 -1 -18 5
-54 -34 -45 -49 5 -8 2 -8 -9 1 -14 11 -17 10 -23 -7 -3 -12 -11 -21 -16 -21
-17 0 -49 -38 -36 -44 8 -3 6 -5 -3 -5 -8 -1 -28 -17 -45 -37 -16 -19 -38 -43
-47 -52 -10 -9 -18 -22 -18 -30 0 -7 -6 -15 -14 -18 -8 -3 -13 -16 -11 -29 1
-14 -1 -22 -6 -19 -4 2 -13 -4 -18 -15 -14 -26 -14 -34 1 -25 7 4 8 3 4 -5 -4
-6 -11 -9 -15 -7 -11 7 -35 -40 -26 -53 4 -7 1 -10 -7 -9 -8 2 -13 -6 -12 -19
0 -12 -2 -22 -5 -21 -19 2 -20 -5 -5 -27 15 -22 15 -26 0 -40 -14 -14 -16 -14
-16 -2 0 9 4 17 10 19 5 2 6 9 1 17 -6 9 -15 -10 -30 -57 -28 -94 -27 -96 16
-32 20 30 41 58 47 62 6 4 7 8 2 8 -5 0 7 14 27 31 20 17 34 35 31 40 -3 5 3
6 12 2 13 -5 16 -2 12 9 -4 10 -1 15 10 14 9 0 17 4 17 11 0 6 4 15 9 20 6 5
6 2 1 -6 -6 -11 -4 -13 9 -8 10 4 20 7 22 7 3 0 2 5 -2 12 -5 8 -2 9 9 5 10
-3 17 -2 17 3 0 6 3 9 8 9 16 -3 71 14 67 21 -2 4 7 5 22 2 19 -4 24 -2 18 8
-6 9 -4 11 5 5 8 -5 39 -9 69 -10 63 -2 113 -13 123 -28 11 -18 38 -16 38 1 1
15 2 15 11 -1 6 -9 15 -14 21 -11 6 4 8 3 5 -3 -4 -6 -18 -9 -32 -8 -16 2 -25
-2 -25 -11 0 -8 3 -14 8 -14 8 0 32 -48 32 -66 0 -7 5 -14 11 -16 5 -2 11 -10
13 -18 7 -34 27 -71 35 -66 5 4 7 -2 5 -12 -3 -9 6 -39 21 -65 14 -27 21 -45
15 -42 -5 3 -10 1 -10 -4 0 -6 4 -11 9 -11 5 0 11 -8 14 -17 36 -130 80 -259
90 -265 9 -6 9 -8 0 -8 -9 0 -11 -27 -3 -37 3 -4 7 -20 9 -34 0 -5 6 -7 11 -4
6 3 10 1 10 -4 0 -6 -4 -11 -10 -11 -6 0 -6 -9 0 -26 6 -14 8 -29 5 -34 -3 -5
1 -10 7 -13 10 -3 9 -8 -2 -22 -9 -11 -10 -16 -2 -11 8 5 12 -2 12 -23 0 -43
0 -44 13 -60 9 -11 9 -13 0 -8 -7 5 -9 0 -6 -13 3 -11 10 -17 15 -14 6 4 6 -2
-1 -13 -6 -11 -8 -22 -6 -25 2 -2 5 -34 7 -71 1 -37 7 -67 11 -67 5 0 4 -7 -3
-15 -11 -13 -10 -18 6 -31 10 -9 14 -13 8 -10 -14 7 -27 -21 -14 -29 6 -4 7
-13 1 -24 -6 -10 -6 -23 -1 -31 6 -9 5 -17 -3 -22 -9 -6 -8 -8 3 -8 13 0 13
-2 1 -9 -12 -8 -12 -12 -2 -24 8 -11 9 -17 1 -22 -8 -5 -8 -11 -1 -19 6 -7 7
-16 2 -22 -10 -9 -24 -119 -25 -189 -1 -35 2 -39 24 -40 14 0 31 -4 39 -9 11
-7 13 -5 9 6 -4 8 0 15 7 15 8 0 13 -5 12 -10 -1 -5 4 -12 12 -15 9 -3 11 0 6
9 -5 8 1 6 12 -4 18 -16 21 -16 33 -2 12 15 14 15 22 1 7 -12 14 -13 33 -6 14
5 25 7 25 4 0 -2 10 0 21 7 12 6 19 7 16 2 -4 -6 10 -9 31 -7 24 1 36 7 34 15
-2 9 0 10 11 1 10 -9 17 -9 27 1 8 8 11 8 6 0 -4 -7 1 -9 13 -6 14 3 18 12 16
31 -5 48 -18 147 -21 162 -1 8 -3 48 -3 88 -1 56 -4 71 -13 66 -10 -6 -10 -4
-2 7 12 16 12 29 0 48 -6 9 -5 12 2 7 7 -4 11 18 11 71 1 43 4 103 7 133 3 30
7 71 8 90 2 19 4 36 6 38 7 6 5 29 -4 41 -8 11 -8 13 2 7 7 -4 12 -2 12 6 0 8
-6 20 -12 27 -11 10 -9 11 5 5 10 -3 17 -3 16 2 -1 5 -1 11 1 14 1 3 3 17 5
32 2 16 7 38 10 49 5 15 4 19 -4 15 -6 -4 -11 -2 -11 3 0 6 8 11 18 11 14 0
15 2 2 10 -8 5 -10 10 -4 10 19 0 25 40 6 40 -12 1 -10 5 8 15 14 8 22 14 18
15 -3 0 0 21 8 46 7 26 11 51 7 57 -4 6 -1 7 7 2 10 -6 11 -2 6 20 -5 21 -4
26 7 22 10 -4 13 1 9 20 -4 20 -2 24 9 18 11 -7 11 -5 -1 10 -8 10 -10 16 -4
13 13 -8 88 178 78 194 -4 6 -3 8 2 5 6 -3 16 4 23 15 12 19 11 20 -6 14 -12
-4 -10 0 7 14 14 11 21 20 15 20 -6 0 -5 3 1 8 6 4 23 31 38 60 27 54 53 72
102 72 14 0 22 4 19 10 -3 6 -1 10 4 10 6 0 11 -4 11 -9 0 -4 11 -6 25 -3 14
2 22 9 19 16 -3 6 0 4 8 -5 15 -19 78 -31 78 -15 0 8 3 8 8 0 4 -6 32 -23 62
-37 41 -20 57 -23 63 -14 6 8 7 6 3 -6 -4 -11 1 -20 12 -24 9 -4 23 -13 30
-20 8 -7 18 -11 23 -7 5 3 8 0 7 -7 -2 -7 2 -13 7 -14 20 -1 36 -17 31 -31 -3
-7 -1 -16 5 -19 5 -4 27 -34 50 -68 35 -55 39 -58 34 -30 -3 18 -9 42 -14 55
-5 13 -9 25 -9 28 -4 24 -26 70 -33 70 -4 0 -5 7 -2 17 4 11 3 14 -5 9 -8 -5
-10 -2 -6 8 4 11 0 16 -12 16 -16 0 -17 2 -4 10 14 9 7 15 -14 11 -5 -1 -4 5
4 13 7 9 8 16 3 16 -5 0 -16 16 -23 35 -8 21 -19 34 -26 31 -8 -3 -11 1 -7 11
3 8 2 18 -3 22 -5 3 -17 19 -27 34 -10 15 -23 25 -29 21 -7 -4 -8 -3 -4 5 4 6
0 18 -8 27 -9 8 -22 24 -30 35 -8 11 -22 22 -32 23 -12 2 -18 10 -16 21 3 13
-1 16 -13 11 -10 -3 -14 -2 -9 5 6 11 -34 46 -48 42 -4 -2 -5 4 -2 12 4 10 0
13 -15 10 -12 -2 -19 0 -16 5 11 17 -101 89 -128 82 -5 -1 -6 2 -2 7 6 11 -29
34 -39 24 -3 -3 -6 -2 -6 4 0 14 -78 45 -92 37 -7 -5 -8 -2 -3 5 5 9 2 12 -11
9 -11 -2 -25 3 -32 12 -10 12 -14 12 -19 2 -4 -10 -8 -9 -19 5 -12 17 -13 17
-9 -4z m-550 -132 c-6 -5 -25 10 -25 20 0 5 6 4 14 -3 8 -7 12 -15 11 -17z
m949 -359 c3 -5 -1 -9 -9 -9 -8 0 -12 4 -9 9 3 4 7 8 9 8 2 0 6 -4 9 -8z
m-1034 -152 c8 -5 11 -10 5 -10 -5 0 -17 5 -25 10 -8 5 -10 10 -5 10 6 0 17
-5 25 -10z m627 -12 c-3 -8 -6 -5 -6 6 -1 11 2 17 5 13 3 -3 4 -12 1 -19z
m738 -70 c4 -7 -4 0 -18 17 -17 21 -22 32 -14 37 8 5 14 -2 18 -17 4 -13 10
-29 14 -37z m-778 37 c0 -8 -4 -12 -9 -9 -5 3 -6 10 -3 15 9 13 12 11 12 -6z
m-521 -17 c3 -4 -1 -5 -10 -4 -8 1 -18 5 -22 8 -3 4 1 5 10 4 8 -1 18 -5 22
-8z m509 -18 c-3 -5 -14 -10 -23 -9 -14 0 -13 2 3 9 27 11 27 11 20 0z m-15
-26 c0 -8 -19 -13 -24 -6 -3 5 1 9 9 9 8 0 15 -2 15 -3z m-455 -14 c3 -6 -1
-7 -9 -4 -18 7 -21 14 -7 14 6 0 13 -4 16 -10z"/>
<path d="M7078 6096 c-10 -7 -15 -15 -12 -18 3 -4 -3 -5 -13 -4 -10 0 -17 -5
-15 -12 1 -8 -2 -11 -8 -7 -14 9 -52 -14 -44 -27 4 -7 2 -8 -5 -4 -15 10 -84
-42 -75 -56 4 -7 2 -8 -5 -4 -13 8 -78 -52 -73 -67 1 -5 -1 -6 -6 -3 -13 8
-64 -53 -56 -66 4 -6 3 -8 -3 -5 -6 4 -29 -17 -52 -47 -39 -51 -54 -85 -29
-70 7 4 8 3 4 -5 -4 -6 -11 -9 -16 -6 -5 3 -12 -5 -16 -17 -4 -13 -15 -34 -25
-47 -10 -13 -16 -27 -13 -32 3 -5 0 -9 -7 -9 -7 0 -9 -3 -6 -7 4 -3 2 -12 -4
-19 -6 -8 -9 -21 -5 -29 3 -9 2 -14 -2 -12 -18 11 -29 -19 -35 -90 -1 -18 -7
-35 -13 -37 -12 -5 -12 -35 1 -55 5 -10 4 -12 -3 -7 -8 5 -12 -1 -12 -18 0
-13 -3 -32 -7 -42 -5 -13 -3 -15 8 -9 12 7 12 6 1 -7 -7 -9 -13 -42 -13 -74
-2 -82 -1 -86 14 -78 9 5 9 4 1 -5 -7 -8 -8 -32 -2 -72 4 -34 6 -65 3 -69 -3
-5 -1 -10 4 -12 6 -1 11 -16 13 -31 3 -16 11 -33 19 -38 9 -6 10 -9 2 -9 -7 0
-10 -7 -7 -15 4 -8 10 -12 15 -9 5 3 6 -2 3 -10 -6 -17 54 -166 67 -166 5 0 8
-6 6 -12 -1 -7 4 -12 10 -11 7 2 12 0 12 -5 -3 -20 2 -32 13 -26 7 4 8 3 4 -5
-9 -15 63 -113 77 -104 6 3 7 1 4 -4 -4 -6 2 -20 12 -32 19 -22 37 -29 25 -9
-4 7 -3 8 4 4 6 -4 8 -14 5 -23 -5 -13 -2 -15 11 -10 11 4 15 3 11 -4 -8 -12
26 -40 39 -32 5 4 6 1 2 -5 -8 -13 48 -55 59 -44 5 4 5 2 2 -4 -4 -7 4 -19 18
-28 29 -19 29 -19 14 22 -6 18 -16 29 -22 25 -6 -4 -7 -1 -3 6 5 7 0 19 -10
27 -11 9 -13 12 -5 8 9 -4 12 -2 9 7 -3 8 -11 13 -17 11 -7 -1 -10 2 -7 7 8
13 -15 62 -25 55 -5 -3 -6 1 -4 9 3 7 -1 27 -10 43 -8 16 -15 35 -15 42 0 6
-4 12 -9 12 -4 0 -8 8 -8 18 0 34 -3 43 -13 37 -6 -4 -7 1 -3 10 3 10 0 21 -8
26 -10 6 -10 9 -2 9 14 0 6 31 -11 42 -7 5 -7 8 -1 8 11 0 11 157 1 167 -3 4
-6 11 -6 17 0 6 5 4 10 -4 10 -16 10 -15 14 33 1 6 20 31 44 53 61 59 124 69
233 34 34 -10 67 -16 72 -13 6 3 7 1 4 -4 -8 -13 20 -26 36 -16 7 3 9 3 5 -2
-8 -8 53 -55 71 -55 6 0 11 -5 11 -11 0 -6 7 -8 16 -5 8 3 12 2 9 -4 -5 -8 33
-36 45 -32 3 1 5 -4 5 -10 1 -7 7 -12 14 -10 7 1 10 -2 6 -7 -7 -12 29 -33 40
-23 5 4 5 2 2 -4 -7 -12 62 -81 75 -77 5 2 7 -2 5 -8 -1 -6 6 -13 16 -14 9 -2
17 1 17 6 0 6 4 8 9 5 11 -7 43 29 34 38 -5 4 -3 6 2 4 13 -4 70 48 70 65 1 6
7 11 14 9 18 -4 42 18 34 32 -3 6 -3 8 2 4 11 -11 47 11 39 24 -4 7 -3 8 4 4
7 -4 12 -2 12 5 0 7 3 9 6 6 7 -6 63 28 75 46 3 5 9 8 13 8 20 -3 26 0 21 9
-4 6 1 7 11 3 13 -5 15 -3 9 7 -5 8 -4 11 3 6 6 -4 28 0 48 9 20 8 45 15 56
15 10 0 17 4 14 8 -3 5 15 6 39 2 24 -4 51 -2 61 3 12 7 15 6 10 -2 -7 -10 8
-15 42 -14 7 1 11 -1 8 -4 -7 -7 25 -38 38 -38 6 0 11 -9 11 -20 0 -11 5 -19
12 -18 7 2 10 -6 8 -17 -2 -11 0 -20 4 -20 4 0 7 -18 6 -40 -1 -22 3 -40 8
-40 4 0 6 -4 2 -9 -3 -5 -1 -12 5 -16 5 -3 10 -12 10 -18 0 -7 -4 -6 -10 3 -9
13 -10 13 -11 0 0 -8 -2 -23 -4 -32 -2 -10 2 -18 8 -18 8 0 8 -3 -1 -8 -7 -5
-13 -29 -15 -54 -1 -25 -5 -44 -8 -42 -10 6 -21 -45 -13 -58 5 -7 2 -8 -6 -3
-10 6 -12 3 -8 -13 4 -12 2 -20 -2 -17 -11 7 -23 -32 -15 -45 4 -6 3 -10 -2
-9 -20 4 -24 -2 -12 -18 8 -9 9 -14 3 -10 -14 8 -48 -58 -38 -75 4 -6 3 -8 -4
-4 -6 3 -17 -8 -26 -25 -19 -39 -20 -42 -3 -33 6 4 -4 -8 -23 -25 -28 -26 -30
-30 -10 -20 37 17 60 40 53 52 -3 5 -2 7 4 4 14 -9 55 22 47 35 -5 7 -2 8 5 4
12 -8 71 48 134 125 15 19 36 45 47 58 11 13 20 30 20 38 0 7 5 13 11 13 5 0
7 5 4 10 -3 6 -2 10 3 10 13 0 55 96 47 109 -4 7 -1 10 7 9 8 -2 13 6 12 19 0
12 3 20 6 18 11 -7 33 71 26 90 -3 9 -2 13 3 10 11 -6 35 100 27 121 -3 8 -1
14 4 14 6 0 10 51 10 126 0 97 -3 124 -12 118 -10 -5 -10 -4 -2 5 8 8 8 27 2
59 -4 26 -11 60 -13 75 -13 69 -86 232 -100 220 -4 -4 -5 -3 -2 4 10 16 -3 44
-16 36 -6 -4 -7 -1 -3 6 10 16 -41 94 -56 85 -7 -4 -8 -3 -4 5 10 15 -13 43
-27 34 -6 -3 -7 -1 -3 5 8 13 -62 94 -75 86 -5 -3 -6 2 -3 10 4 10 1 16 -9 16
-8 0 -18 7 -21 16 -4 9 -13 14 -22 10 -8 -3 -13 -2 -10 2 7 12 -5 26 -57 61
-26 18 -52 29 -57 26 -5 -3 -7 0 -4 8 5 13 -6 19 -95 55 -10 4 -12 2 -5 -9 9
-15 13 -139 4 -139 -3 0 -7 -12 -8 -27 -3 -37 -46 -120 -89 -174 -37 -44 -126
-109 -170 -123 -17 -6 -23 -15 -23 -37 0 -21 4 -28 13 -23 9 5 9 4 1 -5 -7 -8
-8 -27 -4 -52 5 -24 3 -39 -3 -39 -5 0 -4 -6 2 -14 7 -8 8 -17 3 -20 -9 -5
-27 -95 -25 -123 0 -7 -3 -11 -7 -8 -11 7 -22 -24 -13 -37 3 -7 1 -8 -5 -4
-11 7 -17 -6 -13 -27 1 -5 -3 -6 -8 -2 -6 3 -15 -3 -20 -14 -6 -10 -22 -22
-36 -25 -14 -4 -24 -10 -21 -15 3 -4 -14 -4 -37 1 -23 5 -50 10 -59 11 -9 1
-16 6 -15 12 1 5 -4 9 -10 8 -7 -2 -12 0 -11 5 4 13 -23 53 -32 47 -6 -3 -7 1
-4 10 4 9 -1 22 -12 31 -11 9 -13 13 -7 9 13 -6 9 17 -7 40 -3 6 -8 30 -9 55
-2 25 -8 48 -14 52 -9 6 -9 8 1 8 6 0 12 7 12 15 0 8 -6 15 -12 15 -10 0 -9 3
1 9 9 6 12 22 9 49 -2 22 0 38 3 36 9 -5 17 18 12 34 -3 6 -11 12 -19 12 -8 0
-14 4 -14 8 0 4 -12 15 -28 24 -61 36 -156 156 -163 205 -1 5 -6 19 -12 33 -5
14 -11 61 -12 105 -2 43 -7 80 -11 82 -5 1 -17 -4 -26 -11z"/>
<path d="M9696 6090 c-108 -28 -279 -155 -352 -262 -16 -24 -32 -45 -35 -48
-17 -13 -77 -125 -72 -133 3 -6 1 -7 -4 -4 -10 6 -40 -50 -35 -65 1 -5 -2 -8
-6 -8 -12 0 -33 -50 -27 -61 4 -5 2 -9 -3 -9 -13 0 -44 -78 -37 -91 4 -5 2 -9
-2 -9 -8 0 -31 -52 -33 -72 0 -4 -8 -27 -16 -50 -9 -24 -18 -54 -21 -68 -7
-34 -9 -43 -16 -60 -12 -31 -27 -122 -21 -131 3 -5 1 -9 -4 -9 -5 0 -15 -36
-22 -81 -10 -71 -9 -87 6 -129 10 -27 22 -46 27 -43 6 3 7 1 3 -5 -18 -30 159
-282 187 -265 5 3 7 1 4 -4 -4 -6 12 -26 36 -45 48 -40 157 -111 162 -106 5 5
-115 114 -121 109 -3 -3 -2 2 2 12 4 12 1 17 -10 17 -9 0 -15 3 -14 8 1 4 -10
32 -26 64 -31 63 -34 75 -35 136 -1 32 -4 41 -13 36 -9 -5 -9 -3 1 9 7 9 11
30 9 47 -3 16 -2 28 1 25 7 -8 41 107 34 118 -3 6 -2 7 4 4 5 -3 18 8 28 26
11 18 29 43 41 56 13 14 20 29 17 34 -3 6 -2 7 4 4 5 -3 21 5 36 18 14 14 46
38 71 53 25 16 43 32 40 35 -3 3 1 4 8 4 7 -1 47 10 88 23 62 21 94 25 190 24
121 0 211 -6 204 -13 -2 -2 19 -13 48 -23 73 -25 154 -80 215 -146 89 -95 129
-203 118 -322 -10 -118 -47 -191 -153 -302 l-77 -81 45 23 c104 53 217 146
291 240 66 84 130 204 99 185 -9 -5 -11 -4 -6 4 4 6 11 9 16 6 9 -5 40 77 40
106 0 10 -6 20 -12 22 -10 4 -10 6 0 6 8 1 10 6 6 13 -4 7 -9 24 -10 38 -7 59
-28 159 -33 156 -3 -2 -7 14 -8 36 -2 23 -7 46 -13 53 -5 6 -7 14 -4 17 9 10
-83 275 -132 378 -27 56 -51 97 -57 93 -6 -3 -7 -1 -4 4 6 9 -49 105 -86 149
-52 65 -112 122 -120 117 -6 -3 -7 -2 -4 4 12 19 -171 130 -198 119 -8 -3 -15
0 -17 6 -5 14 -173 20 -222 8z m143 -272 c61 -16 136 -93 183 -188 21 -41 41
-90 44 -108 4 -18 18 -42 32 -55 57 -50 80 -78 84 -101 8 -42 -14 -58 -62 -42
-43 15 -80 66 -80 112 0 28 -5 34 -57 57 -136 61 -270 57 -394 -10 -38 -20
-46 -29 -46 -54 0 -59 -83 -130 -126 -108 -31 17 -15 67 36 114 27 25 48 57
57 85 39 120 135 261 194 283 9 4 16 10 16 14 0 13 72 14 119 1z m401 -1428
c0 -5 -10 -15 -22 -21 -23 -12 -23 -12 -4 10 21 23 26 26 26 11z"/>
<path d="M550 6060 c-13 -11 -27 -20 -32 -20 -18 0 -174 -165 -236 -248 -33
-45 -72 -107 -87 -138 -38 -81 -82 -229 -90 -304 -4 -36 -9 -74 -11 -85 -2
-10 2 -23 9 -27 9 -6 9 -8 -1 -8 -24 0 0 -233 34 -340 18 -53 20 -62 24 -75 2
-5 23 -50 48 -99 46 -91 136 -218 194 -272 80 -75 252 -195 263 -182 1 2 -6
50 -17 108 -31 174 -28 395 8 512 3 9 7 25 9 35 10 48 65 183 75 183 21 0 199
-65 270 -98 243 -115 473 -325 636 -582 66 -105 67 -105 153 -31 83 69 172
189 239 320 91 177 114 276 113 488 -1 210 -52 382 -168 565 -79 125 -108 160
-182 218 -18 14 -42 33 -53 43 -26 21 -48 22 -48 1 0 -9 7 -42 14 -73 15 -56
20 -93 31 -208 8 -84 -10 -281 -34 -374 -26 -102 -71 -199 -93 -199 -40 0
-179 53 -258 99 -132 77 -208 124 -235 147 -13 11 -36 29 -50 40 -182 134
-326 314 -426 532 -45 99 -58 108 -99 72z"/>
<path d="M4400 5810 c0 -5 5 -10 11 -10 5 0 7 5 4 10 -3 6 -8 10 -11 10 -2 0
-4 -4 -4 -10z"/>
</g>
</svg>
